<?xml version="1.0" encoding="UTF-8" standalone="no"?>
<svg
   viewBox="0 0 400 400"
   width="400"
   height="400"
   version="1.1"
   id="svg575"
   sodipodi:docname="bane.svg"
   inkscape:version="1.1.1 (3bf5ae0d25, 2021-09-20)"
   xmlns:inkscape="http://www.inkscape.org/namespaces/inkscape"
   xmlns:sodipodi="http://sodipodi.sourceforge.net/DTD/sodipodi-0.dtd"
   xmlns:xlink="http://www.w3.org/1999/xlink"
   xmlns="http://www.w3.org/2000/svg"
   xmlns:svg="http://www.w3.org/2000/svg">
  <defs
     id="defs579">
    <linearGradient
       id="linearGradient109499"
       inkscape:swatch="solid">
      <stop
         style="stop-color:#629eff;stop-opacity:1;"
         offset="0"
         id="stop109497" />
    </linearGradient>
    <linearGradient
       id="linearGradient109288"
       inkscape:swatch="solid">
      <stop
         style="stop-color:#629eff;stop-opacity:1;"
         offset="0"
         id="stop109286" />
    </linearGradient>
    <pattern
       inkscape:collect="always"
       patternUnits="userSpaceOnUse"
       width="30.066020"
       height="5.1805778"
       id="Wavy"
       inkscape:stockid="Wavy">
      <path
         style="fill:black;stroke:none;"
         d="M 7.597,0.061 C 5.079,-0.187 2.656,0.302 -0.01,1.788 L -0.01,3.061 C 2.773,1.431 5.173,1.052 7.472,1.280 C 9.770,1.508 11.969,2.361 14.253,3.218 C 18.820,4.931 23.804,6.676 30.066,3.061 L 30.062,1.788 C 23.622,5.497 19.246,3.770 14.691,2.061 C 12.413,1.207 10.115,0.311 7.597,0.061 z "
         id="path107136" />
    </pattern>
    <linearGradient
       id="linearGradient107867"
       inkscape:swatch="solid">
      <stop
         style="stop-color:#000000;stop-opacity:1;"
         offset="0"
         id="stop107865" />
    </linearGradient>
    <linearGradient
       id="linearGradient106476"
       inkscape:swatch="solid">
      <stop
         style="stop-color:#ffffff;stop-opacity:1;"
         offset="0"
         id="stop106474" />
    </linearGradient>
    <linearGradient
       id="linearGradient65273"
       inkscape:swatch="solid">
      <stop
         style="stop-color:#000000;stop-opacity:1;"
         offset="0"
         id="stop65271" />
    </linearGradient>
    <linearGradient
       id="linearGradient65223"
       inkscape:swatch="solid">
      <stop
         style="stop-color:#000000;stop-opacity:1;"
         offset="0"
         id="stop65221" />
    </linearGradient>
    <linearGradient
       id="linearGradient60248"
       inkscape:swatch="solid">
      <stop
         style="stop-color:#000000;stop-opacity:1;"
         offset="0"
         id="stop60246" />
    </linearGradient>
    <linearGradient
       inkscape:collect="always"
       xlink:href="#linearGradient107867"
       id="linearGradient107861"
       x1="271.36888"
       y1="103.39294"
       x2="299.12446"
       y2="103.39294"
       gradientUnits="userSpaceOnUse"
       gradientTransform="translate(-9.6412871,47.242307)" />
    <linearGradient
       inkscape:collect="always"
       xlink:href="#linearGradient107867"
       id="linearGradient107869"
       gradientUnits="userSpaceOnUse"
       x1="304.37962"
       y1="46.19207"
       x2="309.87173"
       y2="46.19207"
       gradientTransform="translate(5.4292667,47.909425)" />
  </defs>
  <sodipodi:namedview
     id="namedview577"
     pagecolor="#ffffff"
     bordercolor="#666666"
     borderopacity="1.0"
     inkscape:pageshadow="2"
     inkscape:pageopacity="0.0"
     inkscape:pagecheckerboard="0"
     showgrid="false"
     inkscape:zoom="3.1116177"
     inkscape:cx="235.40809"
     inkscape:cy="196.20019"
     inkscape:window-width="1920"
     inkscape:window-height="1001"
     inkscape:window-x="-9"
     inkscape:window-y="-9"
     inkscape:window-maximized="1"
     inkscape:current-layer="layer3">
    <inkscape:grid
       type="xygrid"
       id="grid67359" />
  </sodipodi:namedview>
  <g
     inkscape:groupmode="layer"
     id="layer4"
     inkscape:label="Layer 2">
    <g
       inkscape:groupmode="layer"
       id="layer3"
       inkscape:label="Layer 1"
       style="display:inline" />
    <path
       style="fill:url(#Wavy);fill-opacity:1;fill-rule:nonzero;stroke:url(#linearGradient107861);stroke-width:1.04076;stroke-linecap:butt;stroke-linejoin:miter;stroke-miterlimit:4;stroke-dasharray:none;stroke-opacity:1"
       d="m 262.82751,130.70975 c 10.04,-8.68699 15.48292,-6.57757 18.94716,-4.7432 3.4646,1.83427 4.05793,4.27928 4.27102,7.613 0.21323,3.33368 -0.20028,9.3365 -4.71943,15.31613 -4.51924,5.97944 -7.83091,8.60028 -11.7268,16.46434 -3.89574,7.86381 -3.23146,14.59852 -3.23146,14.59852 l 3.3102,-0.34425 c 0,0 0.1895,-4.60124 0.5179,-6.21616 0.32849,-1.61484 1.16309,-4.26689 3.07752,-7.85247 1.91413,-3.58565 3.24223,-6.5179 7.07587,-10.98351 3.83392,-4.46558 6.31591,-9.43886 7.15755,-11.05082 0.84169,-1.612 2.67562,-10.68466 0.22452,-15.64772 -1.44413,-2.92452 -9.46224,-8.74847 -16.08406,-5.78349 -6.6216,2.96525 -7.977,4.74107 -8.98903,5.59314 -1.01246,0.85211 0.16869,3.03647 0.16869,3.03647 z"
       id="path49414"
       sodipodi:nodetypes="cssssccsssssssc" />
    <ellipse
       style="fill:url(#Wavy);fill-opacity:1;fill-rule:nonzero;stroke:url(#linearGradient107869);stroke-width:1.04076;stroke-miterlimit:4;stroke-dasharray:none;stroke-opacity:1"
       id="path59349"
       cx="312.55493"
       cy="94.101494"
       rx="2.2256758"
       ry="2.3280449"
       transform="rotate(18)" />
  </g>
  <g
     id="g573"
     transform="translate(-10.977647,-5.0067523)">
    <path
       fill="#131941"
       stroke="#131941"
       stroke-width="5"
       stroke-miterlimit="10"
       d="m 237.4,286.9 c 0,0 -17.9,8.5 -35.3,-7.4 -8.6,-7.9 3.4,-58.2 -14.5,-75.5 -7.8,-7.6 -27.6,-21 -19.4,-34.6 8.5,-14.1 3.7,-31.2 1.2,-38.7 l -0.2,-0.6 c 3.8,-4.5 4.6,-14.3 4.7,-20.5 0,-2.9 -3.4,-4.5 -5.7,-2.7 -0.8,0.6 -1.5,1.4 -2.3,2.3 -6.2,6.9 -14.7,11.2 -24,11.7 -0.3,0 -0.7,0 -1,0.1 -11.4,0.6 -22.4,-3.7 -30.9,-11.4 l -0.5,-0.4 c -2.4,-2 -6.2,-0.4 -6.3,2.7 -0.2,5.6 0.1,13.7 3.1,18 -1.5,2.9 -2.7,6.1 -3.4,9.8 -2.5,12.4 4.2,24 4.2,34 0,13.5 -6.1,23.4 -6.1,23.4 0,0 -25.1,51.8 -25.1,87.9 0,2.6 -16.5,12.5 9.2,18.4 45.4,10.5 62.6,2 86.3,9.9 5.4,1.8 20.6,4.9 38.2,4.6 39.5,-0.7 75.5,-7.3 75.5,-7.3 0,0 28.2,6.7 42.4,-3.9 2.9,-2.2 -14.5,-8.6 -19.8,-9.2 -41.6,-5.4 -70.3,-10.6 -70.3,-10.6 z"
       id="path295" />
    <path
       stroke="#131941"
       stroke-width="6"
       stroke-miterlimit="10"
       fill="none"
       d="M 50,290.1 H 350"
       id="path297" />
    <g
       id="g571">
      <path
         fill="#f15b2a"
         d="m 308,284.2 c 6.5,1.4 10.9,8.5 5.7,19.2 -2.2,4.4 -10.7,6.2 -18.8,6.9 -8.7,0.8 -22.2,-2.3 -26.8,-5.1 -4.6,-2.7 -11.9,-8.8 -12.6,-17.4 -0.3,-3.2 1,-7 2.7,-8 2.8,-1.7 6.4,-1.2 8.7,1.1 6.9,6.8 23,11.1 31.7,7.3 l -8.2,1.1 -11.2,-2 -9,-3.9 0.3,-6.3 2.4,-5.4 7.6,7.1 10.9,3.9 z"
         id="path299"
         style="fill:#0000ff" />
      <g
         id="g521">
        <g
           id="g305">
          <path
             fill="#f15b2a"
             d="m 258.7,211.8 c -2,-7.3 -2.2,-15.2 -8.8,-25.6 -5,-7.9 -17.9,-5.5 -35.9,-2.3 -17.9,-3.2 -21.3,-11.8 -29,-6.6 -13.3,9.1 -15.8,28.3 -16.6,35.6 -0.5,5.5 -3.5,12.7 -5.2,16.4 -1.2,2.6 -5.6,7.1 -6.6,8.6 -3.4,5.3 -3.9,9 -2.8,21.1 1.8,21.9 9.6,37.1 9.6,37.1 l 1.3,10.8 15.8,0.8 33.5,-1.5 33.5,1.5 15.8,-0.8 1.3,-10.8 c 0,0 7.7,-15.2 9.6,-37.1 1.1,-13.2 -2.1,-21.3 -9,-26.4 -4.4,-3 -4.3,-12.9 -6.5,-20.8 z"
             id="path301"
             style="fill:#0000ff" />
          <path
             fill="#131841"
             d="m 247.5,308.8 -33.5,-1.5 -33.5,1.5 h -0.1 L 164.6,308 c -0.5,0 -0.9,-0.4 -0.9,-0.9 l -1.3,-10.6 c -0.8,-1.7 -7.8,-16.7 -9.6,-37.3 -1,-12.4 -0.5,-16.3 3,-21.7 0.4,-0.6 1.1,-1.5 2.1,-2.6 1.6,-1.8 3.7,-4.3 4.4,-5.9 3,-6.6 4.7,-12.2 5.1,-16.1 1.7,-17.3 7.6,-29.9 17,-36.4 1.8,-1.3 3.5,-1.9 5.3,-1.9 2.5,0 4.9,1.2 7.9,2.6 3.9,1.9 8.7,4.2 16.3,5.6 8.9,-1.6 16.7,-3 22.8,-3 7,0 11.4,1.8 13.9,5.8 5.1,8 6.5,14.5 7.7,20.4 0.4,1.9 0.8,3.7 1.3,5.5 0.7,2.6 1.2,5.3 1.6,8 0.9,5.4 1.8,10.5 4.5,12.4 7.6,5.5 10.6,14.1 9.5,27.3 -1.7,20.6 -8.7,35.6 -9.6,37.3 l -1.3,10.6 c -0.1,0.5 -0.5,0.9 -0.9,0.9 z m -33.5,-3.5 33.5,1.5 14.9,-0.7 1.2,-10 c 0,-0.1 0,-0.2 0.1,-0.3 0.1,-0.2 7.6,-15.3 9.5,-36.7 1,-12.4 -1.7,-20.5 -8.6,-25.5 -3.3,-2.4 -4.3,-7.9 -5.2,-13.7 -0.4,-2.6 -0.9,-5.3 -1.6,-7.8 -0.5,-1.8 -0.9,-3.7 -1.3,-5.6 -1.2,-5.6 -2.5,-12 -7.4,-19.7 -2.1,-3.4 -5.9,-4.9 -12.2,-4.9 -6,0 -13.7,1.4 -22.5,3 h -0.5 c -8,-1.4 -13.2,-4 -17,-5.8 -2.9,-1.4 -5,-2.4 -7,-2.4 -1.4,0 -2.7,0.5 -4.2,1.5 -8.9,6.1 -14.5,18.2 -16.1,34.9 -0.4,4.2 -2.2,9.8 -5.3,16.7 -0.8,1.8 -3,4.4 -4.7,6.4 -0.8,1 -1.6,1.9 -2,2.4 -3.2,5 -3.7,8.5 -2.7,20.5 1.8,21.4 9.4,36.6 9.5,36.7 0.1,0.1 0.1,0.2 0.1,0.3 l 1.2,10 14.9,0.7 z"
             id="path303" />
        </g>
        <path
           fill="#f15b2a"
           d="m 249.9,186.2 c -1.8,-4.2 -7.1,-10.3 -9.4,-14.6 -1.7,-3 1.1,-5.6 -2.6,-5.3 0,0 -5.3,1.6 -7.4,2 -2,0.5 -8.8,5.6 -11.2,6.5 -3,1.1 -6.3,0.4 -9.4,0.4 -0.9,0 -9.2,-3.5 -9.4,-3.7 -1.8,-1.4 -13.8,-4.4 -14.2,-3.4 -0.4,1 -11.6,25.8 -10.7,26.9 0.5,0.5 28.5,16.3 30,16.6 0.8,0.2 14.7,8.4 14.7,8.4 0.9,1.1 6.7,-10.8 15.1,-17.4 0,0 16,5.1 17.1,4.7 4.2,-1.3 -1.3,-18.5 -2.6,-21.1 z"
           id="path307"
           style="fill:#0000ff" />
        <g
           id="g313">
          <path
             fill="#eda65b"
             d="m 185,300.3 c 0,0 1.3,-4.2 1.1,-7.7 -1.1,0.9 -4.3,-0.7 -6.9,-1.4 -1.2,-0.3 -16.3,-2.5 -18.9,5.3 -2.1,6.4 0.6,9.2 1,10.2 1.9,3.7 8.6,1 8.6,1 l 1.7,0.4 c 2.7,0.5 5.4,0.5 8,-0.1 l 0.3,-0.1 c 0,0 3.3,-3.4 4.4,-6.3 0.3,-0.5 0.5,-0.9 0.7,-1.3 z"
             id="path309" />
          <path
             fill="#131841"
             d="m 165.3,309.6 c -2.9,0 -4.2,-1.4 -4.8,-2.5 0,-0.1 -0.1,-0.2 -0.2,-0.3 -0.9,-1.3 -2.9,-4.5 -0.9,-10.6 1,-3 4.1,-6.5 13.7,-6.5 3.2,0 5.8,0.4 6.3,0.6 0.8,0.2 1.6,0.5 2.4,0.8 1.2,0.4 2.5,0.9 3.3,0.9 h 0.3 c 0.3,-0.2 0.7,-0.3 1,-0.1 0.3,0.1 0.6,0.5 0.6,0.9 0.2,3.5 -1,7.5 -1.1,8 0,0.1 0,0.2 -0.1,0.2 -0.2,0.4 -0.4,0.8 -0.5,1.1 -1.2,3 -4.5,6.5 -4.6,6.7 -0.1,0.1 -0.3,0.2 -0.5,0.3 l -0.3,0.1 c -1.5,0.3 -2.9,0.5 -4.4,0.5 -1.4,0 -2.7,-0.1 -4,-0.4 l -1.4,-0.3 c -0.8,-0.1 -2.8,0.6 -4.8,0.6 z m 7.8,-18 c -3.8,0 -10.4,0.7 -11.9,5.1 -1.7,5.2 -0.1,7.7 0.7,8.9 0.1,0.2 0.2,0.4 0.3,0.5 0.2,0.3 0.7,1.4 3,1.4 2.1,0 4.3,-0.9 4.3,-0.9 0.2,-0.1 0.4,-0.1 0.6,-0.1 l 1.7,0.4 c 2.5,0.5 5.1,0.5 7.6,-0.1 0.7,-0.8 3.1,-3.5 4,-5.8 0.1,-0.4 0.3,-0.8 0.6,-1.2 0.2,-0.5 1,-3.4 1,-6.1 -1.1,0 -2.5,-0.5 -3.9,-1 -0.8,-0.3 -1.6,-0.5 -2.3,-0.7 -0.3,0 -2.7,-0.4 -5.7,-0.4 z"
             id="path311" />
        </g>
        <path
           fill="#131841"
           d="m 167.7,303.9 c -0.1,0 -0.2,0 -0.4,-0.1 -0.5,-0.2 -0.8,-0.8 -0.6,-1.3 0.6,-1.7 0.5,-2.7 0,-4.4 -0.2,-0.5 0.1,-1.1 0.7,-1.2 0.5,-0.2 1.1,0.1 1.2,0.7 0.6,2 0.8,3.5 0,5.7 -0.1,0.4 -0.5,0.6 -0.9,0.6 z"
           id="path315" />
        <path
           fill="#131841"
           d="m 175.6,304.7 c -0.1,0 -0.3,0 -0.4,-0.1 -0.5,-0.2 -0.7,-0.8 -0.5,-1.3 1.2,-2.6 0.4,-4.1 0.2,-4.7 -0.1,-0.1 -0.1,-0.3 -0.1,-0.3 -0.2,-0.5 0.1,-1.1 0.6,-1.3 0.5,-0.2 1.1,0.1 1.2,0.6 0,0 0,0.1 0.1,0.1 0.4,0.8 1.5,3 -0.2,6.5 -0.2,0.3 -0.6,0.5 -0.9,0.5 z"
           id="path317" />
        <g
           id="g323">
          <path
             fill="#eda65b"
             d="m 240.4,300.3 c 0,0 -1.3,-4.2 -1.1,-7.7 1.1,0.9 4.3,-0.7 6.9,-1.4 1.2,-0.3 16.3,-2.5 18.9,5.3 2.1,6.4 -0.6,9.2 -1,10.2 -1.9,3.7 -8.6,1 -8.6,1 l -1.7,0.4 c -2.7,0.5 -5.4,0.5 -8,-0.1 l -0.3,-0.1 c 0,0 -3.3,-3.4 -4.4,-6.3 -0.2,-0.5 -0.4,-0.9 -0.7,-1.3 z"
             id="path319" />
          <path
             fill="#131841"
             d="m 260.2,309.6 c -2,0 -4,-0.7 -4.8,-0.9 L 254,309 c -2.8,0.6 -5.7,0.5 -8.5,-0.1 l -0.3,-0.1 c -0.2,0 -0.4,-0.1 -0.5,-0.3 -0.1,-0.1 -3.4,-3.6 -4.6,-6.7 -0.1,-0.3 -0.3,-0.7 -0.5,-1.1 l -0.1,-0.2 c -0.2,-0.5 -1.3,-4.5 -1.1,-8 0,-0.4 0.3,-0.7 0.6,-0.9 0.3,-0.1 0.7,-0.1 1,0.1 h 0.3 c 0.8,0 2.1,-0.4 3.3,-0.9 0.8,-0.3 1.6,-0.6 2.4,-0.8 0.6,-0.1 3.2,-0.6 6.3,-0.6 9.6,0 12.8,3.5 13.7,6.5 2,6.1 0,9.2 -0.9,10.6 -0.1,0.1 -0.2,0.3 -0.2,0.3 -0.5,1.4 -1.8,2.8 -4.7,2.8 z m -4.7,-3 c 0.1,0 0.3,0 0.4,0.1 0,0 2.2,0.9 4.3,0.9 2.3,0 2.8,-1.1 3,-1.4 l 0.3,-0.5 c 0.8,-1.2 2.4,-3.7 0.7,-8.9 -0.6,-1.9 -3,-5.1 -11.9,-5.1 -3,0 -5.4,0.4 -5.8,0.5 -0.7,0.2 -1.5,0.5 -2.3,0.7 -1.4,0.5 -2.8,1 -3.9,1 0.1,2.7 0.9,5.6 1,6.1 l 0.6,1.2 c 0.9,2.3 3.3,5 4,5.8 2.5,0.6 5.1,0.6 7.6,0.1 l 1.7,-0.4 c 0.2,-0.1 0.2,-0.1 0.3,-0.1 z"
             id="path321" />
        </g>
        <path
           fill="#131841"
           d="m 257.7,303.9 c -0.4,0 -0.8,-0.2 -0.9,-0.6 -0.8,-2.2 -0.7,-3.7 0,-5.7 0.2,-0.5 0.7,-0.8 1.2,-0.7 0.5,0.2 0.8,0.7 0.7,1.2 -0.5,1.7 -0.7,2.7 0,4.4 0.2,0.5 -0.1,1.1 -0.6,1.3 -0.1,0.1 -0.2,0.1 -0.4,0.1 z"
           id="path325" />
        <path
           fill="#131841"
           d="m 249.9,304.7 c -0.4,0 -0.7,-0.2 -0.9,-0.6 -1.6,-3.4 -0.5,-5.7 -0.2,-6.5 0,-0.1 0,-0.1 0.1,-0.1 0.2,-0.5 0.7,-0.8 1.3,-0.6 0.5,0.2 0.8,0.7 0.6,1.3 l -0.1,0.3 c -0.3,0.6 -1.1,2.2 0.2,4.7 0.2,0.5 0,1.1 -0.5,1.3 -0.2,0.1 -0.3,0.2 -0.5,0.2 z"
           id="path327" />
        <path
           fill="#eda65b"
           d="m 219.9,247.4 c 4.5,-0.7 6.8,-9.2 10.8,-7.8 4,1.5 7.2,1.7 7.2,1.7 0,0 1.9,-4.8 5,-4.9 3.2,-0.1 6.8,3.3 6.8,3.3 l -2.8,11.9 -4.2,-6.7 c 0,0 -4.3,5.2 -5.6,4.9 -1.4,-0.3 -3.5,-2.4 -5.2,-2.8 -1.7,-0.4 -16.6,9.1 -16.1,7.4 0.5,-1.7 4.1,-7 4.1,-7 z"
           id="path329" />
        <path
           fill="#eda65b"
           d="m 219,272.7 c 3.5,-0.1 5.3,-5.7 8.4,-4.5 l 5.5,1.6 c 0,0 1.5,-3.1 3.9,-3 l 5.1,2.7 -2.3,7.8 -3.1,-4.8 c 0,0 -3.3,3.2 -4.4,2.9 -1,-0.3 -2.7,-1.8 -3.9,-2.2 -1.2,-0.4 -12.8,5 -12.4,3.8 0.4,-1 3.2,-4.3 3.2,-4.3 z"
           id="path331" />
        <path
           fill="#eda65b"
           d="m 207.9,277.2 c -3.5,-0.1 -5.3,-5.7 -8.4,-4.5 l -5.5,1.6 c 0,0 -1.5,-3.1 -3.9,-3 l -5.1,2.7 2.3,7.8 3.1,-4.8 c 0,0 3.3,3.2 4.4,2.9 1.1,-0.3 2.7,-1.8 3.9,-2.2 1.3,-0.4 12.8,5 12.4,3.8 -0.4,-1.1 -3.2,-4.3 -3.2,-4.3 z"
           id="path333" />
        <path
           fill="#eda65b"
           d="m 208.2,246.6 c -4.9,-0.3 -7.7,-8.7 -12,-6.9 -4.3,1.8 -7.7,2.3 -7.7,2.3 0,0 -2.2,-4.7 -5.6,-4.5 l -5.3,1.5 1.6,14.1 4.2,-7.1 c 0,0 1.9,3.5 2.4,2.3 0.7,-1.7 3.1,2.4 3.8,2.2 1.5,-0.4 3.7,-2.7 5.5,-3.2 0.9,-0.3 11,8.4 9,4.3 -1.2,-2.4 9,2.6 8.7,1.8 -0.5,-1.8 -4.6,-6.8 -4.6,-6.8 z"
           id="path335" />
        <path
           fill="#eda65b"
           d="m 195.4,173.1 c -2,3.3 -4.9,3.8 -7.5,12.7 -1.1,3.8 5.7,0.9 6.1,2 0.4,1.1 -5.9,17.5 -0.6,13.3 1.3,-1.1 4,-3 6,-4.4 1.1,-0.8 2.7,-0.3 3.1,1 1.5,4.5 4.6,13.3 6.1,14.8 2.1,2 4.3,-7.9 5,-3.2 0.5,3.1 2.6,-2.6 4.1,-6.9 0.5,-1.6 2.7,-1.8 3.5,-0.3 l 2.8,5 c 0,0 0,-11.9 3.1,-13.8 1.1,-0.7 5.6,8 6.3,6.6 0.3,-0.7 0,-4 -0.5,-7.3 -0.4,-2.9 2.6,-5 5.2,-3.6 3,1.6 5.5,2.6 3.7,0.4 -3.7,-4.3 -5.4,-17.7 -11.1,-18.2 -2.1,-0.2 -6.9,-4.2 -6.9,-4.2 0,0 -22.6,-1.6 -23.8,0 -1.2,1.6 -4.6,6.1 -4.6,6.1 z"
           id="path337" />
        <path
           fill="#eda65b"
           d="m 276.3,286.9 c 0.5,0.2 10.5,5.3 9.9,5.9 -0.6,0.6 -2.2,1.6 -2.4,2.2 -0.1,0.7 3,4.3 3.7,5.3 0.7,1 -1.3,2 -2.4,2.5 -1,0.5 -5.5,-0.4 -3.2,2 l 3.6,5.2 c 0,0 -1,-0.1 -2.8,-0.4 -1.8,-0.3 -10.7,-2.5 -12.1,-3.1 -1.4,-0.6 -5,-2.7 -6.3,-3.7 l -6.6,-7.6 c 0,0 -2.4,-5.1 -2.5,-6.3 -0.1,-1.2 0.2,-5.2 0.6,-6.3 0.5,-1 5.5,-3.9 5.5,-3.9 0,0 0.7,-1.3 3.6,0.9 2.8,2.2 9.6,7.1 9.6,7.1 z"
           id="path339" />
        <g
           id="g403">
          <path
             fill="#a13a23"
             d="m 211.8,186.7 c 0,0 9.6,-0.7 11.4,-2.8 8.8,-10.3 17.3,-12.7 17.3,-12.7 l -1.3,-2.6 -27.6,5.3 -25.4,-5.1 v 2.8 c 0,0 6.6,2.3 15.7,12.5 1.8,2.1 9.8,2.6 9.9,2.6"
             opacity="0.5"
             enable-background="new"
             id="path341" />
          <g
             id="g381">
            <g
               id="g347">
              <path
                 fill="#f15b2a"
                 d="m 252.3,131.7 c -0.2,9.5 -1.4,19.5 -6.4,27.8 -2.2,3.7 -3.1,6.5 -6.6,9.2 -3,2.1 -9.6,0.9 -14.4,4.8 0,0 -6.6,5.6 -12.3,5.3 -5.5,-0.4 -11,-5 -11,-5 -2.7,-2.6 -9.4,-3.2 -13.5,-4.6 -4.8,-1.8 -12.3,-16.5 -12.9,-19.1 l -1.3,-5 c -1.7,-3.9 -2,-8.1 -4.1,-12 -1.4,-2.5 -2.6,-4.6 -3.1,-6.9 -1.1,-5.3 -2.4,-10.8 -3.3,-16.1 -1.7,-8 -5,-20.9 0.4,-27.6 0,0 6,-1.4 16.7,9.9 5.2,4.6 10.3,13.3 16.7,15.7 0,0 2.2,-2.3 3.5,-4.4 1.4,1.2 4.2,2.8 6.4,2.5 1.4,0 2.6,-1.4 3.7,-1.4 0.9,0 2.4,0.9 2.7,0.9 3.9,1.6 3.7,-1.8 5.9,-1.6 2.2,0 2.2,4.2 7,1.6 l 2.4,-0.2 c 6.1,-6.4 18.2,-22.6 28.5,-20.3 9.2,2.3 -1.7,37.9 -4.8,46.5"
                 id="path343"
                 style="fill:#0000ff" />
              <path
                 fill="#131841"
                 d="m 261.7,89.3 c -1.8,-7.6 -10.7,-4.8 -15.4,-1.6 -4.2,2.8 -7.9,6.5 -11.2,10.3 -1.4,1.6 -3,3.4 -4.6,5.1 l -1.8,2.1 c 0.2,-0.2 -1.3,0.2 -1.8,0.2 -1.3,0.2 -2.2,1.2 -3.5,0.7 -0.8,-0.4 -1.3,-1.1 -1.8,-1.6 -1.1,-0.9 -2.7,-0.9 -3.9,0 -0.9,0.9 -1.4,1.6 -3,1.2 -1.1,-0.4 -2.2,-1.1 -3.3,-1.2 -1.1,-0.2 -2,0.5 -2.7,0.9 -2.2,1.4 -5.2,-0.5 -6.8,-1.8 -0.5,-0.4 -1.3,-0.4 -1.7,0.2 -0.9,1.4 -1.7,2.5 -2.7,3.7 -5,-2.5 -8.5,-7.1 -11.8,-11.1 -3.1,-3.5 -6.6,-6.7 -10.1,-9.7 -1.7,-1.4 -3.5,-2.8 -5.7,-3.7 -2,-0.9 -3.5,-0.7 -5.5,-0.7 -1.7,0 -2.4,2.5 -3,3.7 -0.9,2.3 -1.3,5.1 -1.3,7.6 0,5.3 1.1,10.6 2.2,15.9 0.8,3.2 1.1,6.5 1.8,9.7 0.8,3.5 1.1,7.2 2.6,10.6 1.4,3.4 3.3,6.4 4.4,9.9 0.8,2.5 1.7,5 2.2,7.4 0.8,2.6 1.4,5.1 2.6,7.4 2.4,4.8 5.2,9.7 8.8,13.6 3.5,3.7 9.4,3 13.8,5.1 4.2,3 8.8,6 14,6.7 5.3,0.5 10.3,-3.2 14.7,-6.5 3.5,-1.6 7.4,-1.6 11,-2.8 3.7,-1.2 5.7,-5.3 7.4,-8.3 2.6,-4.6 4.6,-8.9 5.9,-14 1.1,-4.2 1.5,-8.6 1.7,-12.9 0,-0.8 0.5,-2.6 0.5,-2.6 2.6,-6.7 4.4,-13.6 6.1,-20.7 1.5,-7.6 3.5,-15.8 1.9,-22.8 z m -1.8,9.3 c -0.4,4.4 -1.3,8.7 -2.2,12.9 -1.4,6.5 -3.3,12.9 -5.5,19.3 -0.4,0.2 -0.8,2.9 -0.9,4 -0.2,3.9 -0.7,7.8 -1.5,11.8 -1.1,5 -3.1,9.2 -5.5,13.6 -1.8,3.4 -3.7,7.4 -7.9,8.5 -1.8,0.5 -3.7,0.7 -5.3,1.1 0,-0.7 -0.8,-1.2 -1.4,-0.7 -1.7,1.1 -5.3,3.7 -5.3,3.9 -3.5,2.5 -7.4,4.8 -11.6,4.6 -3.1,-0.2 -6.3,-2 -8.6,-3.5 -0.8,-0.4 -3,-2.1 -3.3,-2.3 -1.4,-1.1 -2.7,-2 -4.2,-3 -0.8,-0.5 -1.4,0.2 -1.4,1.1 l -4.1,-0.9 c -3.9,-0.9 -5.9,-3.7 -8.1,-6.9 -3.5,-5.1 -5.9,-10.5 -7.5,-16.5 -0.5,-2 -1.3,-3.9 -1.8,-6 -0.8,-3 -1.7,-5.5 -3.3,-8.1 -1.8,-3 -2.4,-6.2 -3.1,-9.5 -0.8,-3.2 -1.4,-6.5 -2,-9.9 -0.9,-5 -2,-9.7 -2.6,-14.9 -0.4,-4.4 -0.4,-9.4 2.2,-13.3 1.1,0 2.2,-0.2 3.5,0.2 1.8,0.5 3.5,1.8 5,3 2.6,2 4.8,4.2 7.2,6.4 5.5,4.8 11.2,15.2 17.5,16.3 1.4,-1.2 2.6,-2.6 3.7,-4.2 1.7,1.1 3.3,2 5.3,2.1 1.1,0.2 2,-0.2 3,-0.7 1.7,-0.9 2,-0.7 3.7,0.2 1.4,0.7 3.1,0.9 4.4,-0.2 0.5,-0.4 1.1,-1.2 1.8,-1.2 0.5,0 1.4,1.2 1.8,1.4 1.3,1.1 2.7,1.1 4.2,0.7 l 2.2,-0.7 c 0.5,0 1.4,0 1.8,-0.4 3.1,-3.4 6.1,-6.9 9.2,-10.1 3.5,-3.7 7.5,-7.4 12.5,-9.4 3,-1.2 6.8,-1.6 8.1,1.8 0.7,2.8 0.3,6.3 0,9.5 z"
                 id="path345" />
            </g>
            <path
               fill="#eda65b"
               d="m 239.4,133.3 c -0.5,-1.8 -1.8,-3 -3.7,-3.4 -1.4,-0.4 -3,0 -4.2,-0.2 0.2,-1.2 1.1,-5.1 -1.7,-4.8 -1.4,0 -3,4.2 -3.9,5.3 -1.4,2.1 -2.4,1.6 -2.6,-0.9 -0.4,-2.5 0.9,-5.9 -1.1,-6.4 -1.4,-0.2 -2.6,2.6 -3.1,4.4 -0.2,0.9 -1.1,1.6 -0.8,-4.6 0,-1.6 0,-5.9 -0.9,-6 H 217 c -2.6,0.2 -4.4,10.1 -5.2,12.9 -0.5,-2.8 -3.5,-14.9 -5.7,-12.2 -0.5,1.6 -0.2,2.3 -0.4,3.9 0,0.9 -0.2,6.9 -0.9,5.9 -0.4,-1.8 -2.4,-5.3 -3.5,-4.8 -2,1.8 -0.4,4.2 -0.9,6.7 -0.4,2.5 -1.3,3 -2.6,0.7 -0.8,-1.1 -2,-5.3 -3.5,-5.5 -2.6,-0.4 -1.8,3.5 -1.8,4.8 -1.3,0 -2.7,-0.4 -4.2,-0.2 -1.8,0.4 -3.1,1.4 -3.9,3.2 -0.2,0.4 0,13.6 12.2,13.8 2,0 3.5,-0.2 5.2,-0.9 1.1,-0.4 2,-1.2 3,-0.5 l 12.5,0.9 c 0.9,-0.7 1.8,-1.2 2.7,-0.9 1.7,0.7 4.1,2 6.1,2 6.3,0 11.8,-2.5 13.6,-8.1 0.7,-0.2 -0.1,-4.7 -0.3,-5.1 z"
               id="path349" />
            <path
               fill="#ffffff"
               d="m 188.3,135.2 c 0,0 7.7,-0.7 9.8,0.4 4.1,2 4.6,6.4 4.6,5.9 0,0 -2.4,0.9 -3.1,0.9 -1.3,0.2 -3,0.4 -3.9,0.4 -6.2,-0.8 -7.4,-7.6 -7.4,-7.6 z"
               id="path351" />
            <g
               id="g357">
              <path
                 fill="#ffffff"
                 d="m 236.9,136.3 c 0,0 -7.5,-1.1 -9.8,-0.2 -4.2,1.8 -5,6.2 -5,5.6 0,0 2.4,0.9 3,1.1 2,0.5 3,0.5 3.9,0.5 6.4,-0.3 7.9,-7 7.9,-7 z"
                 id="path353" />
              <path
                 fill="#ffffff"
                 d="m 222.5,141.6 c 0.5,0.2 2.4,0.9 3,1.1 1.4,0.4 2.4,0.5 3.3,0.5 h 0.4 c 5.5,-0.2 7.4,-5.9 7.5,-6.7 -0.8,-0.2 -4.1,-0.5 -6.4,-0.5 -1.4,0 -2.4,0.2 -3,0.4 -3.5,1.3 -4.6,4.5 -4.8,5.2 z"
                 id="path355" />
            </g>
            <path
               fill="#f4783f"
               d="m 206.1,154.2 c -0.5,-2.8 0.2,-5.6 0.8,-8.5 0,0 1.8,-6 4.8,-6.5 7.5,-1.4 8.3,15.2 8.3,15.2 -8.9,3.8 -13.9,-0.2 -13.9,-0.2 z"
               id="path359" />
            <path
               fill="#eda65b"
               d="m 232.6,156.3 c -0.5,-1.2 -2.7,-2.3 -4.4,-2.5 -3.5,-0.4 -15.4,2.3 -15.4,2.3 v 0.1 c -1.6,-0.4 -12.2,-3.3 -15.4,-3 -1.7,0.2 -4.1,1.1 -4.6,2.3 -0.9,1.8 0.2,4.1 1.1,6 1.1,2.1 3.7,5.3 6.3,6.9 1.1,0.7 2.2,1.1 3.3,1.1 9.2,0.2 9.8,-5.3 9.8,-5.1 l 0.1,-0.9 c 0.4,0 -0.8,5.6 8.3,5.6 1.1,0 2.2,0.4 3.3,-0.2 2.6,-1.6 5.3,-4.6 6.4,-6.7 0.9,-1.8 2.2,-4 1.2,-5.9 z"
               id="path361" />
            <path
               fill="#cf4b28"
               d="m 205.9,154.5 c 0.4,-1.1 7.4,0.2 7.4,0.2 0,0 6.1,-1.4 7,0.2 0.2,0.4 -0.8,1.6 -0.8,1.6 0,0 -2.6,-0.2 -3.1,0.4 -0.8,0.7 -1.1,4.1 -0.9,4.1 0.2,0 -1.3,1.8 -2,1.8 -0.5,0 -2.2,-1.2 -2,-1.4 0.2,-0.2 -0.2,-3.7 -1.1,-4.4 -0.5,-0.5 -2.6,0.2 -3.3,-0.2 -0.4,-0.7 -1.2,-2.3 -1.2,-2.3 z"
               id="path363" />
            <path
               fill="#131841"
               d="m 198.3,134.9 c -0.9,-0.4 -2.4,-0.5 -5,-0.5 -2.6,0 -5,0.2 -5.2,0.2 h -0.7 v 0.7 c 0,0 1.4,7.2 8.1,8 0.2,0 3.1,0 4.2,-0.2 0.5,-0.2 3.5,-0.9 3.5,-0.9 0,0 0.1,-5.5 -4.9,-7.3 z m 1.1,6.5 c -0.9,0.4 -2.7,0.4 -3.5,0.4 -2.4,-0.2 -4.2,-1.4 -5.5,-3.5 -0.6,-0.9 -0.9,-1.8 -1.1,-2.5 0.9,0 2.4,-0.2 4.2,-0.4 h 1.2 c -0.2,1.4 -0.5,5 1,4.8 1.4,-0.3 1.7,-3 1.8,-4.3 0.1,0 0.2,0.1 0.2,0.1 2.6,1.2 3.7,3.7 4.1,4.8 -1,0.3 -2,0.6 -2.4,0.6 z"
               id="path365" />
            <path
               fill="#131841"
               d="m 237.2,135.6 c -0.2,0 -3.8,-0.5 -6.8,-0.5 -1.7,0 -2.6,0.2 -3.3,0.4 -3.1,1.2 -4.6,3.9 -5.2,5.3 l -0.3,1.6 3.7,1.2 c 1.4,0.4 2.6,0.5 3.5,0.5 h 0.6 c 6.6,-0.4 8.5,-7.6 8.5,-7.6 l 0.2,-0.7 z m -2.5,3.7 c -1.1,2.8 -5.9,3.4 -6.1,3.4 -0.8,0 -1.8,-0.2 -3.1,-0.5 -0.4,-0.2 -1.3,-0.5 -2.2,-0.9 0.4,-1.1 1.7,-3.4 4.2,-4.4 0,1.4 0.3,4 1.7,4.3 1.3,0.3 1.3,-3.1 1.2,-4.6 2,0 4.4,0.2 5.6,0.4 -0.2,0.6 -1,1.2 -1.3,2.3 z"
               id="path367" />
            <path
               fill="#eda65b"
               d="m 179.7,146 c 1.1,2.8 3.1,5 5.9,6.4 1.8,1.1 3.5,-1.8 1.7,-2.8 -1.8,-1 -3.5,-2.5 -4.2,-4.4 -0.9,-2 -4.2,-1.1 -3.4,0.8 z"
               id="path369" />
            <path
               fill="#eda65b"
               d="m 239.8,152.4 c 2,-1.4 4.2,-2.6 5.5,-5 1.1,-1.8 -1.8,-3.5 -3,-1.6 -0.9,1.6 -2.7,2.6 -4.4,3.7 -0.8,0.5 -1.1,1.4 -0.5,2.3 0.4,0.8 1.7,1.1 2.4,0.6 z"
               id="path371" />
            <path
               fill="#131841"
               d="m 205.6,169.9 c -0.4,0 -0.8,-0.4 -0.8,-0.7 0,-0.3 0.2,-0.7 0.8,-0.7 6.6,-0.5 7.2,-4.4 7.4,-4.6 0,-0.4 0.4,-0.7 0.8,-0.5 0.4,0 0.8,0.4 0.8,0.7 0,0.2 0,3.9 7,4.1 0.4,0 0.8,0.4 0.8,0.7 0,0.3 -0.4,0.7 -0.8,0.7 -3.5,0 -5.9,-1.1 -7.4,-2.8 -0.2,-0.2 -0.4,-0.5 -0.4,-0.7 -1.4,1.5 -3.6,3.5 -8.2,3.8 z"
               id="path373" />
            <g
               id="g379">
              <path
                 fill="#cf4b28"
                 d="m 220.1,155.1 c 0.2,0.4 -0.8,1.6 -0.8,1.6 0,0 -2.6,-0.2 -3.1,0.4 -0.8,0.7 -1.1,4.1 -0.9,4.1 0.2,0 -1.3,1.8 -2,1.8 -0.5,0 -2.2,-1.2 -2,-1.4 0.2,-0.2 -0.2,-3.7 -1.1,-4.4 -0.5,-0.5 -2.6,0.2 -3.3,-0.2 -0.5,-0.2 -1.1,-1.8 -1.1,-1.8"
                 id="path375" />
              <path
                 fill="#131841"
                 d="m 213.3,163.6 c -0.9,0 -3,-2.3 -2.7,-2.5 0,-0.7 -0.4,-3.2 -0.8,-3.7 h -1.3 c -0.8,0 -1.4,0.2 -1.8,-0.2 -0.8,-0.4 -1.3,-1.6 -1.4,-2.1 -0.2,-0.4 0,-0.7 0.4,-0.9 0.4,-0.2 0.8,0 0.9,0.4 0.2,0.7 0.8,1.4 0.9,1.4 h 1.1 c 0.9,0 1.7,-0.2 2.2,0.4 1.1,0.9 1.3,3.9 1.3,4.1 v 0.7 c 0.4,0.4 0.9,0.7 1.3,0.9 0.4,-0.2 0.9,-0.9 1.3,-1.2 0,-0.4 0,-0.9 0.2,-1.8 0.4,-2 0.9,-2.5 1.1,-2.6 0.5,-0.5 2.2,-0.5 3.3,-0.5 0.2,-0.4 0.4,-0.5 0.4,-0.7 0,-0.4 0,-0.5 0.4,-0.7 0.4,-0.2 0.8,-0.2 0.9,0.2 0.2,0.2 0.5,0.9 -0.9,2.5 -0.2,0.2 -0.4,0.4 -0.5,0.2 -1.1,0 -2.4,0 -2.6,0.2 -0.4,0.4 -0.8,2.5 -0.8,3.2 v 0.4 c -0.3,0.1 -1.8,2.1 -2.9,2.3 z"
                 id="path377" />
            </g>
          </g>
          <path
             fill="#ffffff"
             d="m 173,132.1 c 3.1,-2.8 5,-9 5.7,-14 -0.2,0.7 5.3,0.9 8.5,-2.5 2.2,-2.3 0.9,-4.1 -0.4,-6.9 -3.5,-7.2 -9.4,-12.9 -15.1,-18.2 -1.4,-1.4 -3,-5 -5.5,-4.1 -2,0.7 -1.8,6.5 -1.4,8.3 2.2,15.3 8.2,37.4 8.2,37.4 z"
             id="path383"
             style="fill:#eda65b;fill-opacity:1" />
          <path
             fill="#ffffff"
             d="m 249.4,130.5 c -3,-2.8 -6.1,-8.7 -6.6,-13.5 0,0.7 -5.3,0.7 -8.3,-2.6 -2,-2.3 -0.8,-3.9 0.8,-6.4 3.9,-6.5 9.9,-11.7 15.8,-16.6 1.7,-1.2 3.3,-3 5.7,-2 2,0.9 1.4,4.8 1.1,6.4 -3,17 -8.5,34.7 -8.5,34.7 z"
             id="path385"
             style="fill:#eda65b;fill-opacity:1" />
          <path
             fill="#ed662b"
             d="m 249.7,107.5 c -4.1,1 -8.5,3.3 -10.4,7.1 -0.9,-4.5 3.4,-9.5 6.9,-11.9 1.1,-0.7 0,-2.5 -1.1,-1.8 -4.4,3.2 -9,9.2 -7.7,14.7 0.2,0.6 0.8,0.8 1.2,0.7 l -0.1,0.6 c -0.2,1.2 1.8,1.8 2,0.5 0.9,-4.4 5.5,-6.9 9.8,-8 1.3,-0.3 0.7,-2.3 -0.6,-1.9 z"
             id="path387"
             style="fill:#0000ff" />
          <path
             fill="#ed662b"
             d="m 176,102.7 c -1.1,-0.7 -2,0.9 -1.1,1.8 2.9,2.1 6.5,6.3 6.9,10.1 -1.9,-3.8 -6.2,-6.1 -10.4,-7.1 -1.3,-0.4 -1.8,1.6 -0.5,2 4.2,1.1 8.8,3.5 9.8,8 0.2,0.8 1.1,0.9 1.6,0.5 0.5,0.3 1.3,0.2 1.5,-0.5 1.4,-5.6 -3.4,-11.8 -7.8,-14.8 z"
             id="path389"
             style="fill:#0000ff" />
          <path
             fill="#131841"
             d="m 186.1,105.7 c -3.1,-5.3 -7.5,-9.7 -12,-14 l -4.8,-5.3 c -0.9,-0.9 -2.7,-1.2 -3.9,-0.2 -2.4,2.1 -1.8,6.7 -1.4,9.5 0.8,5.5 1.8,10.8 3.1,16.1 1.4,6.9 3.1,13.6 5,20.3 0,0.4 0.4,0.5 0.5,0.5 0.2,0.2 0.5,0 0.9,-0.2 3.5,-3.4 5,-8.5 5.7,-13.3 2.2,0.4 5.9,-1.2 6.8,-1.8 5.4,-2.8 2.5,-7.7 0.1,-11.6 z m -1.3,11 c -0.9,0.5 -2,0.9 -3.1,1.1 -0.4,0 -2,0 -2,0.2 -0.2,-0.7 -1.4,-0.9 -1.7,0 -0.8,4.2 -1.8,9 -4.6,12.4 -3.1,-11.5 -5.9,-23.3 -7.7,-35 -0.4,-2 -0.5,-10.6 3.1,-6.9 l 3.5,4.1 5,5 c 3.5,3.5 6.4,7.6 8.6,12 0.5,1.1 1.1,2 1.3,3 0.9,1.6 -0.9,3.2 -2.4,4.1 z"
             id="path391" />
          <path
             fill="#131841"
             d="m 254.7,88.2 c -1.7,0.2 -3.1,1.4 -4.2,2.5 -2.2,2 -4.4,3.7 -6.6,5.6 -4.1,3.7 -7.4,7.8 -10.1,12.4 -2.2,3.7 -0.4,6.7 3.5,8.5 0.8,0.4 3.3,1.2 5,1.1 0.9,4.8 3.3,9.4 6.6,12.7 0.4,0.2 0.5,0.2 0.9,0.2 0.2,0 0.4,-0.2 0.5,-0.5 2,-6.4 3.7,-12.9 5.3,-19.5 1.3,-5.3 2.6,-11 3.3,-16.5 0.2,-3 0,-6.7 -4.2,-6.5 z m 2.4,6.2 c -0.8,8 -3.1,16.1 -5.2,23.9 -0.9,3.5 -1.8,7.1 -3,10.5 -3,-3.4 -4.8,-7.6 -5.5,-12 -0.2,-0.9 -1.4,-0.7 -1.7,0 0.2,-0.5 0.4,-0.4 -0.4,-0.2 -0.8,0 -1.4,-0.2 -2.2,-0.4 -2,-0.5 -5,-2 -5.2,-4.2 -0.2,-1.6 1.7,-3.7 2.6,-5.1 1.3,-2 2.7,-3.7 4.2,-5.5 2.7,-3 5.7,-5.5 8.8,-8.1 1.3,-1.1 2.6,-2.3 4.2,-3.2 3.6,-1.9 3.6,2.5 3.4,4.3 z"
             id="path393" />
          <g
             id="g399">
            <path
               fill="#ed662b"
               d="M 186.5,168.5 C 183.2,179 176.4,185 175.1,195.8"
               id="path395" />
            <path
               fill="#131841"
               d="m 185.4,168.3 c -3.1,9.5 -10.1,17.3 -11.4,27.4 -0.2,1.2 1.2,3.8 2,0 1.3,-9.9 8.5,-17.7 11.4,-26.9 0.3,-1.2 -1.7,-1.7 -2,-0.5 z"
               id="path397" />
          </g>
          <path
             fill="#131841"
             d="m 238.7,169.4 c 3.9,8.7 9.8,16.3 12.2,25.5 0.4,1.2 2.7,0.7 2.5,-0.5 -2.4,-9.4 -8.9,-17.1 -13,-26 -0.4,-1.2 -2.3,-0.2 -1.7,1 z"
             id="path401" />
        </g>
        <g
           id="g459">
          <g
             id="g409">
            <path
               fill="#676868"
               d="m 248.9,142.1 c -0.5,0.6 -1.1,1.1 -1.7,1.6 -4.7,4 -10.6,6.7 -16.5,8.2 -1.5,0.4 -3,0.7 -4.2,0.8 l -2.6,0.1 -5.3,24.4 18.4,-6.4 c 0,0 12.2,-12.6 15.6,-32.8 0.2,-1.4 -3.7,4.1 -3.7,4.1 z m -8.4,13 c 0.8,0 -5.3,10.4 -5.4,10.4 -0.1,0 -13.1,4.4 -12.4,4.1 0.7,-0.3 3.3,-5.8 3.4,-6.3 0,-0.5 -0.1,-3.8 -0.1,-3.8 0.3,-0.1 13.9,-4.4 14.5,-4.4 z"
               id="path405" />
            <path
               fill="#131841"
               d="m 219,178.1 -0.7,-1.9 18.1,-6.4 c 1.3,-1.5 9.7,-10.7 13.3,-27.4 l -0.1,0.1 c 0,0 0,0.1 -0.1,0.1 -0.5,0.5 -1,1.1 -1.8,1.7 -4.4,3.8 -10.3,6.7 -16.9,8.4 -1.7,0.4 -3.1,0.7 -4.3,0.8 l -2.7,0.1 -0.1,-2 2.6,-0.1 c 1,-0.1 2.4,-0.4 4,-0.8 6.3,-1.6 11.9,-4.4 16.1,-8 0.6,-0.6 1.1,-1 1.5,-1.5 l 1.7,-2.2 c 1.7,-2.2 1.6,-3 2.5,-2.6 0.4,0.2 0.8,0.6 0.6,1.3 -3.3,20.3 -14.7,33 -15.2,33.5 -0.1,0.1 -0.2,0.2 -0.4,0.2 z"
               id="path407" />
          </g>
          <g
             id="g415">
            <path
               fill="#676868"
               d="m 199.8,152.8 -2.6,-0.1 c -1.2,-0.1 -2.6,-0.4 -4.2,-0.8 -5.9,-1.5 -11.8,-4.2 -16.5,-8.2 -0.6,-0.5 -1.2,-1 -1.7,-1.6 0,0 -3.9,-5.5 -3.7,-4.1 3.3,20.2 15.6,32.8 15.6,32.8 l 18.4,6.4 z m -16.4,2.2 c -0.3,-0.8 13.7,3.7 14,3.8 0,0 1.1,4.2 1.2,4.6 0,0.5 2.6,6 3.4,6.3 0.7,0.3 -12.2,-4.1 -12.4,-4.1 -0.2,-0.1 -5.9,-9.9 -6.2,-10.6 z"
               id="path411" />
            <path
               fill="#131841"
               d="m 204.8,178.1 -18.4,-6.4 -0.4,-0.2 c -0.5,-0.5 -11.5,-13.1 -14.9,-33.4 -0.1,-0.7 0.3,-1.1 0.6,-1.3 0.8,-0.3 1.5,0.2 3.2,2.4 0.8,1 7.3,8.4 18.3,11.8 1.5,0.5 2.9,0.7 4,0.8 l 2.6,0.1 -0.1,2 -2.6,-0.1 c -1.2,-0.1 -2.7,-0.3 -4.4,-0.8 -14.1,-4.7 -18.6,-11.5 -19,-12.1 3.6,16.7 12.3,27.7 13.6,29.1 l 18.1,6.4 z"
               id="path413" />
          </g>
          <g
             id="g421">
            <path
               fill="#676868"
               d="m 210.2,179.3 -4.8,-2.1 -5.1,-10.3 c -2.1,-3.1 -2.6,-7 -1.3,-10.6 l 3.6,-10.3 5.5,-4.5 2.8,-5.3 h 2.7 l 2.8,5.3 5.5,4.5 3.9,11.1 c 1.1,3 0.7,6.4 -1.1,9 l -0.5,0.7 -5.1,10.3 -5.8,2.1 h -3.1 z"
               id="path417" />
            <path
               fill="#131841"
               d="M 213.4,180.3 H 210 l -5.3,-2.4 -5.3,-10.5 C 197.2,164 196.6,159.8 198,156 l 3.7,-10.5 5.5,-4.5 3,-5.6 h 3.9 l 3,5.6 5.5,4.5 4,11.3 c 1.2,3.3 0.7,7 -1.2,9.9 l -0.4,0.7 -5.3,10.6 z m -3,-2 h 2.6 l 5.3,-1.9 5,-10 0.5,-0.7 c 1.6,-2.4 2,-5.4 1,-8.1 l -3.8,-10.8 -5.4,-4.4 -2.6,-4.9 h -1.5 l -2.6,4.9 -5.4,4.4 -3.6,10 c -1.1,3.2 -0.7,6.8 1.2,9.7 l 0.1,0.1 5,10 z"
               id="path419" />
          </g>
          <g
             id="g427">
            <path
               fill="#676868"
               d="m 212.6,127.9 -5.7,0.2 -2.9,-5.3 -4.2,-16.1 3.9,-0.8 4.5,-0.9 c 2.6,-0.5 5.2,-0.5 7.8,0 l 4.2,0.8 3.9,0.8 -4.2,16.1 -2.9,5.3 -5.7,-0.2"
               id="path423" />
            <path
               fill="#131841"
               d="m 217.5,129.2 -5.6,-0.2 -5.6,0.2 -3.3,-6 -4.5,-17.2 4.9,-1 4.5,-0.9 c 2.6,-0.5 5.4,-0.5 8.2,0 l 9.1,1.8 -4.5,17.2 z m -12.6,-6.7 2.6,4.7 3.8,-0.1 V 127 h 1.4 v 0.1 l 3.8,0.1 2.6,-4.7 3.9,-14.9 -7,-1.4 c -2.5,-0.5 -5,-0.5 -7.4,0 l -7.4,1.4 z"
               id="path425" />
          </g>
          <path
             fill="#131841"
             d="m 218.3,125.3 c -0.3,-0.3 -0.8,-0.6 -1.4,-0.9 l -0.9,-0.6 c -2.2,-1.5 -4.3,-1 -4.4,-1 l -0.5,-1.9 c 0.1,0 3,-0.7 6,1.2 l 0.8,0.5 c 0.7,0.4 1.3,0.8 1.7,1.2 z"
             id="path429" />
          <path
             fill="#131841"
             d="m 219.2,122.7 c -0.2,-0.2 -0.9,-0.6 -1.5,-0.9 l -1.2,-0.7 c -2.3,-1.5 -5.2,-1.1 -5.2,-1 l -0.3,-2 c 0.1,0 3.6,-0.6 6.6,1.3 0.3,0.2 0.7,0.4 1.1,0.6 0.8,0.4 1.5,0.8 2,1.3 z"
             id="path431" />
          <path
             fill="#131841"
             d="m 220.7,116.6 -1.3,-0.7 c -1.7,-0.9 -3.3,-1.5 -4.7,-1.6 -1.4,-0.1 -2.7,-0.2 -3.9,-0.2 v -2 c 1.3,0 2.6,0.1 4.1,0.2 1.8,0.2 3.6,0.8 5.5,1.9 l 1.3,0.7 z"
             id="path433" />
          <path
             fill="#131841"
             d="m 221.2,114.1 c -2.4,-1.8 -5.5,-2.5 -10,-2.4 v -2 c 5,-0.1 8.5,0.8 11.2,2.8 z"
             id="path435" />
          <path
             fill="#131841"
             d="m 214.1,127.9 -1.7,-1 c 4.5,-8 5.8,-20.6 5.8,-20.8 l 2,0.2 c -0.1,0.6 -1.4,13.3 -6.1,21.6 z"
             id="path437" />
          <path
             fill="#131841"
             d="m 222.8,170.3 c -0.4,0 -0.8,-0.3 -0.9,-0.7 -0.2,-0.5 0.1,-1.1 0.6,-1.3 l 11.1,-3.8 5,-8.1 c -3,1.3 -7.8,3 -12.2,3 -0.5,0 -1,-0.4 -1,-1 0,-0.5 0.4,-1 1,-1 6.6,-0.1 14.3,-4.2 14.4,-4.3 0.4,-0.2 0.9,-0.1 1.2,0.2 0.3,0.3 0.4,0.8 0.1,1.2 l -6.9,11.2 c -0.1,0.2 -0.3,0.3 -0.5,0.4 l -11.4,3.9 c -0.3,0.3 -0.4,0.3 -0.5,0.3 z"
             id="path439" />
          <path
             fill="#131841"
             d="m 205.5,125.3 -1.4,-1.4 c 0.4,-0.4 1.1,-0.8 1.7,-1.2 0.3,-0.2 0.6,-0.3 0.8,-0.5 3,-2 5.8,-1.2 6,-1.2 l -0.5,1.9 0.2,-1 -0.2,1 c -0.1,0 -2.2,-0.5 -4.4,1 l -0.9,0.6 c -0.4,0.2 -1,0.5 -1.3,0.8 z"
             id="path441" />
          <path
             fill="#131841"
             d="m 204.6,122.7 -1.5,-1.4 c 0.4,-0.4 1.2,-0.8 2,-1.3 0.4,-0.2 0.8,-0.4 1.1,-0.6 3,-1.9 6.5,-1.4 6.6,-1.3 l -0.3,2 c 0,0 -2.9,-0.4 -5.2,1 -0.3,0.2 -0.8,0.5 -1.2,0.7 -0.6,0.3 -1.3,0.7 -1.5,0.9 z"
             id="path443" />
          <path
             fill="#131841"
             d="m 203.1,116.6 -1,-1.7 1.3,-0.7 c 1.9,-1.1 3.8,-1.7 5.5,-1.9 1.4,-0.1 2.8,-0.2 4.1,-0.2 v 2 c -1.2,0 -2.5,0.1 -3.9,0.2 -1.5,0.1 -3.1,0.7 -4.7,1.6 z"
             id="path445" />
          <path
             fill="#131841"
             d="m 202.6,114.1 -1.2,-1.6 c 2.8,-2.1 6.2,-3 11.2,-2.8 v 2 c -4.6,-0.2 -7.7,0.6 -10,2.4 z"
             id="path447" />
          <path
             fill="#131841"
             d="m 209.7,127.9 c -4.7,-8.3 -6,-21 -6.1,-21.5 l 2,-0.2 c 0,0.1 1.4,12.8 5.8,20.8 z"
             id="path449" />
          <g
             id="g455">
            <path
               fill="#676868"
               d="m 206.9,128.2 c 1,9.5 4.7,7.8 4.7,7.8 h 1 c 0,0 3.3,1.7 4.3,-7.8 0,0 -3.9,-0.3 -5.2,-0.3 -1.2,0 -4.8,0.3 -4.8,0.3 z"
               id="path451" />
            <path
               fill="#131841"
               d="m 213.1,137.1 c -0.3,0 -0.6,-0.1 -0.7,-0.1 h -0.6 c -0.2,0.1 -0.5,0.1 -0.8,0.1 -1.9,0 -4.3,-1.5 -5.1,-8.8 l -0.1,-1 1,-0.1 c 0.2,0 3.7,-0.3 4.9,-0.3 1.3,0 5.1,0.2 5.2,0.3 l 1,0.1 -0.1,1 c -0.7,7.3 -3,8.8 -4.7,8.8 z m -0.1,-2 h 0.1 c 0.7,0 2,-1.3 2.7,-6 -1.2,-0.1 -3.2,-0.2 -4.1,-0.2 -0.8,0 -2.6,0.1 -3.7,0.2 0.6,4.4 1.9,6 3,6 h 0.2 l 0.2,-0.1 h 1.5 z"
               id="path453" />
          </g>
          <path
             fill="#131841"
             d="m 201,170.3 c -0.1,0 -0.2,0 -0.3,-0.1 l -11.4,-3.9 c -0.2,-0.1 -0.4,-0.2 -0.5,-0.4 l -6.9,-11.2 c -0.2,-0.4 -0.2,-0.9 0.1,-1.2 0.3,-0.3 0.8,-0.4 1.2,-0.2 0.1,0 7.8,4.2 14.4,4.3 0.5,0 1,0.5 1,1 0,0.5 -0.4,1 -1,1 -4.5,0 -9.2,-1.7 -12.2,-3 l 5,8.1 11.1,3.8 c 0.5,0.2 0.8,0.7 0.6,1.3 -0.3,0.2 -0.7,0.5 -1.1,0.5 z"
             id="path457" />
        </g>
        <path
           fill="#131841"
           d="m 216.7,310.2 c -0.5,0 -0.9,-0.4 -1,-0.9 0,-0.2 -1.5,-16.5 -1.6,-32.9 0,-2.3 0,-4.5 -0.1,-6.5 -0.1,-9.3 -0.2,-16 0.1,-17.9 0,-0.1 0.1,-0.4 0.1,-0.8 0.5,-4.3 1,-7.3 1.8,-8.3 3,-4 3.4,-16.2 3.5,-20.2 0,-1 0,-1.5 0.1,-1.7 0.1,-0.5 0.5,-0.9 1.1,-0.9 0.5,0.1 0.9,0.6 0.9,1.1 0,0.2 0,0.8 -0.1,1.5 -0.2,7.8 -0.8,17.3 -3.9,21.3 -0.3,0.4 -0.7,1.9 -1.4,7.3 -0.1,0.5 -0.1,0.8 -0.1,0.9 -0.3,1.7 -0.2,8.7 -0.1,17.5 0,2.1 0,4.2 0.1,6.5 0.1,16.3 1.6,32.6 1.6,32.8 0.1,0.6 -0.3,1.1 -1,1.2 z"
           id="path461" />
        <path
           fill="#131841"
           d="m 240.4,297.5 c -0.4,0 -0.8,-0.3 -0.9,-0.7 -0.1,-0.2 -1.4,-4.5 -1.4,-14.1 0,-10.7 4.3,-23.6 7.1,-32.2 0.8,-2.4 1.5,-4.5 1.9,-6 4.4,-16 6.4,-46.2 3.5,-52.9 -0.2,-0.5 0,-1.1 0.5,-1.3 0.5,-0.2 1.1,0 1.3,0.5 3.1,7.2 1.3,37.6 -3.4,54.3 -0.4,1.6 -1.1,3.7 -2,6.1 -2.8,8.4 -7,21.1 -7,31.5 0,9.2 1.3,13.5 1.3,13.5 0.2,0.5 -0.1,1.1 -0.7,1.2 0,0 -0.1,0.1 -0.2,0.1 z"
           id="path463" />
        <path
           fill="#131841"
           d="m 210.1,308.6 c -0.6,0 -1,-0.5 -1,-1.1 0,-0.3 1.8,-29.4 1.9,-29.8 0.1,-2.6 0.1,-3.6 0.1,-4.9 0,-0.9 -0.1,-1.8 -0.1,-3.5 v -2.2 c 0.1,-10.1 0.2,-21.5 -0.8,-23 -2.2,-3.6 -3.3,-14.2 -3.9,-21.8 -0.1,-0.6 -0.1,-1.1 -0.1,-1.3 -0.1,-0.5 0.3,-1 0.9,-1.1 0.5,-0.1 1,0.3 1.1,0.9 0,0.2 0.1,0.7 0.1,1.3 0.9,11.5 2.1,18.5 3.6,20.9 1.2,1.9 1.2,10 1.1,24.1 v 2.2 c 0,1.6 0,2.5 0.1,3.4 0,1.3 0.1,2.4 -0.1,5.1 0,0.4 -1.8,28.6 -1.9,29.8 0,0.6 -0.5,1 -1,1 z"
           id="path465" />
        <path
           fill="#131841"
           d="m 184.5,302.5 h -0.3 c -0.5,-0.1 -0.8,-0.7 -0.7,-1.2 0,-0.1 2.2,-8.6 2.3,-17.8 0,-8.4 -3.2,-18.6 -5.8,-26.8 -1.5,-4.8 -2.8,-9 -3.1,-11.7 -0.5,-5 -1.2,-9.5 -1.8,-13.8 -2.2,-15 -4,-26.8 2.1,-46.1 0.2,-0.5 0.7,-0.8 1.2,-0.6 0.5,0.2 0.8,0.7 0.6,1.2 -6,18.8 -4.3,30.4 -2.1,45.2 0.6,4.3 1.3,8.8 1.9,13.9 0.3,2.5 1.6,6.6 3.1,11.3 2.6,8.3 5.9,18.7 5.9,27.4 0,9.5 -2.2,18 -2.3,18.3 -0.2,0.4 -0.6,0.7 -1,0.7 z"
           id="path467" />
        <g
           id="g493">
          <g
             id="g473">
            <path
               fill="#eda65b"
               d="m 211.9,299.9 c -2.7,-6.4 -8.5,-2.3 -10.3,-3.3 -2.7,-1.5 -3.2,-2.6 -6.6,-2.4 -3.4,0.2 -4.5,1.6 -6.2,1.9 -0.5,0.1 -2.6,-0.6 -3.7,-0.3 -2.5,0.8 -4.4,2.5 -4.9,5.7 -0.1,0.9 0,4.5 0.1,5.4 l 0.6,3.2 c 0,0 0.3,1.7 2.8,2.2 3.8,0.7 5.7,-1.1 5.7,-1.1 0,0 2.5,2.7 8,1.3 1.2,-0.3 1.7,-1.3 2.4,-1.2 0.7,0 1.3,0.9 2.6,1.2 2.6,0.5 5.2,0.5 6.7,-0.3 1.9,-1 2.3,-3 2.3,-3 0,0 1.5,-6.9 0.5,-9.3 z"
               id="path469" />
            <path
               fill="#131841"
               d="m 194.4,314.1 c -2.5,0 -4.2,-0.9 -5,-1.4 -0.7,0.4 -2.1,1 -3.9,1 -0.6,0 -1.3,-0.1 -1.9,-0.2 -3.1,-0.6 -3.6,-2.9 -3.6,-3 l -0.6,-3.2 v -0.1 c -0.1,-0.9 -0.2,-4.7 -0.1,-5.7 0.5,-3.3 2.4,-5.5 5.5,-6.5 0.3,-0.1 0.6,-0.2 1.1,-0.2 0.7,0 1.4,0.1 2,0.3 0.3,0.1 0.6,0.1 0.8,0.1 0.5,-0.1 0.9,-0.3 1.5,-0.6 1.1,-0.5 2.5,-1.2 4.9,-1.3 h 0.7 c 2.3,0 3.4,0.7 4.7,1.5 0.5,0.3 1,0.6 1.7,1 h 0.3 c 0.4,0 1,-0.1 1.6,-0.2 0.9,-0.2 1.8,-0.3 2.9,-0.3 2.8,0 4.7,1.4 6,4.3 1.1,2.6 -0.2,9.3 -0.4,10.1 0,0.1 -0.6,2.4 -2.8,3.6 -0.9,0.5 -2.2,0.7 -3.7,0.7 -1.1,0 -2.4,-0.1 -3.7,-0.4 -0.9,-0.2 -1.5,-0.6 -2,-0.9 l -0.4,-0.3 -0.4,0.3 c -0.4,0.3 -1,0.7 -1.8,0.9 -1.3,0.3 -2.3,0.5 -3.4,0.5 z m -5,-3.7 c 0.3,0 0.5,0.1 0.7,0.3 0,0 1.4,1.4 4.3,1.4 0.9,0 1.8,-0.1 2.8,-0.4 0.4,-0.1 0.7,-0.3 1.1,-0.6 0.4,-0.3 0.9,-0.7 1.6,-0.7 0.6,0 1,0.3 1.5,0.6 0.4,0.3 0.8,0.5 1.3,0.6 1.2,0.2 2.3,0.3 3.3,0.3 1.2,0 2.2,-0.2 2.8,-0.5 1.4,-0.8 1.8,-2.3 1.8,-2.3 0.5,-2.6 1.1,-7.3 0.5,-8.9 -1.2,-2.7 -2.8,-3.1 -4.1,-3.1 -0.8,0 -1.7,0.2 -2.5,0.3 -0.7,0.1 -1.4,0.3 -1.9,0.3 -0.5,0 -0.9,-0.1 -1.2,-0.3 -0.7,-0.4 -1.3,-0.8 -1.8,-1.1 -1.2,-0.8 -1.9,-1.2 -3.6,-1.2 h -0.6 c -2,0.1 -3.1,0.6 -4.1,1.1 -0.6,0.3 -1.2,0.6 -2,0.7 -0.4,0.1 -0.9,0 -1.5,-0.1 -0.5,-0.1 -1.1,-0.2 -1.6,-0.2 h -0.4 c -2.5,0.8 -3.8,2.4 -4.2,4.9 -0.1,0.7 0,4.2 0.1,5.1 l 0.6,3.2 c 0,0.1 0.3,1.1 2,1.4 0.5,0.1 1.1,0.1 1.6,0.1 2.2,0 3.3,-0.9 3.3,-1 -0.2,0.2 0,0.1 0.2,0.1 z"
               id="path471" />
          </g>
          <g
             id="g479">
            <path
               fill="#eda65b"
               d="m 194.9,303.4 c -0.6,0.4 -0.9,3.7 0.2,5.2"
               id="path475" />
            <path
               fill="#131841"
               d="m 195,309.6 c -0.3,0 -0.6,-0.2 -0.8,-0.4 -1,-1.4 -1,-3.9 -0.7,-5.2 0.2,-0.7 0.4,-1.2 0.9,-1.4 0.5,-0.3 1.1,-0.1 1.4,0.4 0.2,0.4 0.1,0.9 -0.2,1.2 -0.3,0.6 -0.3,2.9 0.3,3.9 0.3,0.5 0.2,1.1 -0.3,1.4 -0.2,0.1 -0.4,0.1 -0.6,0.1 z"
               id="path477" />
          </g>
          <g
             id="g485">
            <path
               fill="#eda65b"
               d="m 204.8,304.1 c -1,1.3 -0.6,3.9 0,5.1"
               id="path481" />
            <path
               fill="#131841"
               d="m 204.8,310.2 c -0.4,0 -0.7,-0.2 -0.9,-0.5 -0.8,-1.5 -1.2,-4.5 0.1,-6.2 0.3,-0.4 1,-0.5 1.4,-0.2 0.4,0.3 0.5,1 0.2,1.4 -0.7,0.9 -0.4,3.1 0.1,4.1 0.3,0.5 0.1,1.1 -0.4,1.3 z"
               id="path483" />
          </g>
          <g
             id="g491">
            <path
               fill="#eda65b"
               d="m 185.5,303.4 c -0.6,1 -0.5,3.1 0,5.4"
               id="path487" />
            <path
               fill="#131841"
               d="m 185.5,309.8 c -0.5,0 -0.9,-0.3 -1,-0.8 -0.3,-1.3 -0.9,-4.4 0.1,-6.1 0.3,-0.5 0.9,-0.6 1.4,-0.4 0.5,0.3 0.6,0.9 0.4,1.4 -0.3,0.6 -0.5,2.3 0.1,4.7 0.1,0.5 -0.2,1.1 -0.7,1.2 z"
               id="path489" />
          </g>
        </g>
        <g
           id="g519">
          <g
             id="g499">
            <path
               fill="#eda65b"
               d="m 214.9,299.9 c 2.7,-6.4 8.5,-2.3 10.3,-3.3 2.7,-1.5 3.2,-2.6 6.6,-2.4 3.4,0.2 4.5,1.6 6.2,1.9 0.5,0.1 2.6,-0.6 3.7,-0.3 2.5,0.8 4.4,2.5 4.9,5.7 0.1,0.9 0,4.5 -0.1,5.4 l -0.6,3.2 c 0,0 -0.3,1.7 -2.8,2.2 -3.8,0.7 -5.7,-1.1 -5.7,-1.1 0,0 -2.5,2.7 -8,1.3 -1.2,-0.3 -1.7,-1.3 -2.4,-1.2 -0.7,0 -1.3,0.9 -2.6,1.2 -2.6,0.5 -5.2,0.5 -6.7,-0.3 -1.9,-1 -2.3,-3 -2.3,-3 0,0 -1.5,-6.9 -0.5,-9.3 z"
               id="path495" />
            <path
               fill="#131841"
               d="m 232.4,314.1 c -1,0 -2.1,-0.1 -3.2,-0.4 -0.8,-0.2 -1.4,-0.6 -1.8,-0.9 l -0.4,-0.3 c -0.1,0 -0.3,0.2 -0.4,0.3 -0.5,0.3 -1.1,0.7 -2,0.9 -1.3,0.3 -2.6,0.4 -3.7,0.4 -1.5,0 -2.8,-0.3 -3.7,-0.7 -2.2,-1.2 -2.8,-3.5 -2.8,-3.6 -0.2,-0.8 -1.5,-7.5 -0.4,-10.1 1.2,-2.9 3.2,-4.3 6,-4.3 1,0 2,0.2 2.9,0.3 0.6,0.1 1.2,0.2 1.6,0.2 h 0.3 c 0.7,-0.4 1.2,-0.7 1.7,-1 1.3,-0.8 2.4,-1.5 4.7,-1.5 h 0.7 c 2.4,0.1 3.8,0.8 4.9,1.3 0.5,0.3 1,0.5 1.5,0.6 0.1,0 0.5,-0.1 0.8,-0.1 0.6,-0.1 1.3,-0.3 2,-0.3 0.4,0 0.7,0 1.1,0.2 3.2,1.1 5,3.3 5.5,6.5 0.2,1 0,4.8 -0.1,5.7 v 0.1 l -0.6,3.2 c 0,0.1 -0.4,2.4 -3.6,3 -0.7,0.1 -1.3,0.2 -1.9,0.2 -1.9,0 -3.2,-0.6 -3.9,-1 -1,0.4 -2.7,1.3 -5.2,1.3 z m -5.4,-3.7 c 0.7,0 1.1,0.4 1.6,0.7 0.3,0.2 0.7,0.5 1.1,0.6 1,0.2 1.9,0.4 2.8,0.4 2.9,0 4.2,-1.3 4.3,-1.4 0.4,-0.4 1,-0.4 1.4,0 0,0 1.1,1 3.3,1 0.5,0 1,0 1.6,-0.1 1.7,-0.3 2,-1.3 2,-1.4 l 0.6,-3.2 c 0.1,-0.9 0.2,-4.4 0.1,-5.1 -0.4,-2.5 -1.7,-4.1 -4.2,-4.9 h -0.4 c -0.5,0 -1.1,0.1 -1.6,0.2 -0.7,0.1 -1.1,0.2 -1.5,0.1 -0.7,-0.1 -1.3,-0.4 -2,-0.7 -1,-0.5 -2.1,-1 -4.1,-1.1 h -0.6 c -1.7,0 -2.4,0.4 -3.6,1.2 -0.5,0.3 -1.1,0.7 -1.8,1.1 -0.3,0.2 -0.8,0.3 -1.2,0.3 -0.6,0 -1.2,-0.1 -1.9,-0.3 -0.8,-0.1 -1.7,-0.3 -2.5,-0.3 -1.3,0 -3,0.3 -4.1,3.1 -0.7,1.5 -0.1,6.3 0.5,8.9 0,0 0.4,1.5 1.8,2.3 0.6,0.3 1.6,0.5 2.8,0.5 1,0 2.1,-0.1 3.3,-0.3 0.5,-0.1 0.9,-0.4 1.3,-0.6 -0.1,-0.7 0.4,-1 1,-1 z"
               id="path497" />
          </g>
          <g
             id="g505">
            <path
               fill="#eda65b"
               d="m 231.9,303.4 c 0.6,0.4 0.9,3.7 -0.2,5.2"
               id="path501" />
            <path
               fill="#131841"
               d="m 231.8,309.6 c -0.2,0 -0.4,-0.1 -0.6,-0.2 -0.5,-0.3 -0.6,-0.9 -0.3,-1.4 0.7,-1 0.6,-3.3 0.3,-3.9 -0.3,-0.3 -0.4,-0.8 -0.2,-1.2 0.3,-0.5 0.9,-0.6 1.4,-0.4 0.4,0.2 0.7,0.7 0.9,1.4 0.3,1.3 0.3,3.8 -0.7,5.2 -0.2,0.4 -0.5,0.5 -0.8,0.5 z"
               id="path503" />
          </g>
          <g
             id="g511">
            <path
               fill="#eda65b"
               d="m 222,304.1 c 1,1.3 0.6,3.9 0,5.1"
               id="path507" />
            <path
               fill="#131841"
               d="m 222,310.2 c -0.2,0 -0.3,0 -0.5,-0.1 -0.5,-0.3 -0.7,-0.9 -0.4,-1.3 0.5,-1 0.7,-3.2 0.1,-4.1 -0.3,-0.4 -0.2,-1.1 0.2,-1.4 0.4,-0.3 1.1,-0.2 1.4,0.2 1.2,1.7 0.8,4.7 0.1,6.2 -0.2,0.3 -0.6,0.5 -0.9,0.5 z"
               id="path509" />
          </g>
          <g
             id="g517">
            <path
               fill="#eda65b"
               d="m 241.3,303.4 c 0.6,1 0.5,3.1 0,5.4"
               id="path513" />
            <path
               fill="#131841"
               d="m 241.3,309.8 h -0.2 c -0.5,-0.1 -0.9,-0.7 -0.7,-1.2 0.6,-2.4 0.5,-4.1 0.1,-4.7 -0.3,-0.5 -0.1,-1.1 0.4,-1.4 0.5,-0.3 1.1,-0.1 1.4,0.4 1,1.7 0.4,4.9 0.1,6.1 -0.3,0.5 -0.7,0.8 -1.1,0.8 z"
               id="path515" />
          </g>
        </g>
      </g>
      <path
         fill="#a79e9e"
         stroke="#a79e9e"
         stroke-width="0.6"
         stroke-miterlimit="10"
         d="M 240.6,243.7"
         id="path523" />
      <path
         fill="#131841"
         d="m 291.7,311.4 c -8.6,0 -20.1,-2.7 -24.5,-5.3 -2.9,-1.7 -12.3,-8.1 -13.1,-18.1 -0.3,-3.6 1.2,-7.7 3.2,-8.9 3.1,-1.9 7.2,-1.4 9.9,1.2 7,6.9 22.7,10.5 30.6,7.1 0.5,-0.2 1.1,0 1.3,0.5 0.2,0.5 0,1.1 -0.5,1.3 -9.4,4.1 -25.9,-0.7 -32.8,-7.5 -2,-2 -5.2,-2.4 -7.4,-1 -1.2,0.8 -2.5,4.1 -2.3,7.1 0.7,9.1 9.5,15 12.1,16.6 4.2,2.5 17.5,5.7 26.2,4.9 10.2,-0.9 16.4,-3.1 18,-6.4 2.4,-5 2.9,-9.6 1.2,-13 -1.2,-2.5 -3.4,-4.2 -6.2,-4.8 -1.5,-0.3 -3.5,-0.3 -5.8,-0.3 -7.7,0 -19.3,0 -29.9,-12.8 -0.4,-0.4 -0.3,-1.1 0.1,-1.4 0.4,-0.4 1.1,-0.3 1.4,0.1 10,12.1 20.6,12.1 28.4,12.1 2.4,0 4.5,0 6.2,0.4 3.4,0.7 6.1,2.9 7.6,5.9 1.9,4 1.5,9.2 -1.2,14.7 -1.9,4 -8.6,6.5 -19.7,7.5 -0.8,0.1 -1.8,0.1 -2.8,0.1 z"
         id="path525" />
      <g
         id="g531">
        <path
           fill="#4f4d4e"
           d="m 218.4,159.5 2.7,2 -0.5,3.5 c -0.2,1.3 -0.7,2.6 -1.6,3.7 l -1,1.3 -2.1,-0.1 2.2,-2.6 v -5.2 l -3.2,-2.5 h 3.5 z"
           id="path527" />
        <path
           fill="#131841"
           d="m 218.3,170.6 -3.8,-0.2 2.9,-3.5 v -4.6 l -4.4,-3.5 h 5.7 l 3.2,2.4 -0.6,3.9 c -0.2,1.5 -0.8,2.8 -1.7,4 z m -1,-1.4 h 0.4 l 0.8,-1 c 0.8,-1 1.3,-2.1 1.5,-3.4 l 0.4,-3.1 -2.2,-1.6 h -1.4 l 1.9,1.5 v 5.7 z"
           id="path529" />
      </g>
      <g
         id="g537">
        <path
           fill="#4f4d4e"
           d="m 214.4,159.2 v 10.7 c 0,0 1.9,3.7 3.3,0 0.2,-0.4 0.2,-10.7 0.2,-10.7"
           id="path533" />
        <path
           fill="#131841"
           d="m 216.2,172.2 c -1.3,0 -2.2,-1.7 -2.4,-2 l -0.1,-0.1 v -10.9 h 1.3 v 10.5 c 0.3,0.6 0.8,1.1 1.1,1.1 0.2,0 0.5,-0.3 0.8,-1.2 0.1,-0.7 0.2,-6.8 0.2,-10.5 h 1.3 c 0,10.4 -0.2,10.8 -0.3,10.9 -0.3,1.5 -1,2.2 -1.9,2.2 z"
           id="path535" />
      </g>
      <g
         id="g543">
        <path
           fill="#4f4d4e"
           d="m 205.4,159.5 -2.7,2 0.1,2.1 c 0.1,2.3 1.1,4.4 2.7,6.1 l 0.2,0.2 2.1,-0.1 -2.2,-2.6 V 162 l 3.2,-2.5 z"
           id="path539" />
        <path
           fill="#131841"
           d="m 205.5,170.6 -0.4,-0.5 c -1.7,-1.8 -2.8,-4.1 -2.9,-6.5 l -0.2,-2.4 3.2,-2.3 h 5.7 l -4.4,3.5 v 4.6 l 2.9,3.5 z m -2.1,-8.7 0.1,1.7 c 0.1,2.1 1,4.1 2.6,5.7 h 0.5 l -1.5,-1.8 v -5.7 l 1.9,-1.5 h -1.4 z"
           id="path541" />
      </g>
      <g
         id="g549">
        <path
           fill="#4f4d4e"
           d="m 209.2,159.2 v 10.7 c 0,0 -0.9,3.2 -3.3,0 -0.3,-0.4 -0.2,-10.7 -0.2,-10.7"
           id="path545" />
        <path
           fill="#131841"
           d="m 207.9,172 c -0.8,0 -1.6,-0.5 -2.5,-1.7 -0.2,-0.2 -0.4,-0.6 -0.4,-11.1 h 1.3 c 0,4.5 0,9.5 0.2,10.4 0.7,0.8 1.2,1.1 1.4,1 0.3,-0.1 0.5,-0.5 0.6,-0.8 v -10.6 h 1.3 v 10.9 c 0,0.2 -0.5,1.6 -1.7,1.9 z"
           id="path547" />
      </g>
      <g
         id="g555">
        <path
           fill="#4f4d4e"
           d="m 213.7,159.2 v 10.7 c 0,0 -1.8,3.2 -3.3,0 -0.2,-0.4 -0.2,-10.7 -0.2,-10.7"
           id="path551" />
        <path
           fill="#131841"
           d="m 212,172 c -0.9,0 -1.6,-0.6 -2.1,-1.8 -0.1,-0.2 -0.3,-0.6 -0.3,-11 h 1.3 c 0,3.7 0.1,9.7 0.2,10.5 0.3,0.6 0.6,1 0.9,1 0.3,0 0.8,-0.5 1.1,-0.9 v -10.5 h 1.3 v 10.9 l -0.1,0.2 c -0.1,0 -1,1.6 -2.3,1.6 z"
           id="path553" />
      </g>
      <path
         fill="#131841"
         d="m 213.7,147.2 -0.2,-0.1 c -1,-0.7 -2.3,-0.7 -3.3,0 l -0.2,0.1 -5.5,4.3 0.5,8.6 h 4.8 c 1,1 2.8,1.1 3.9,0.1 l 0.2,-0.1 h 4.9 l 0.4,-8.6 z m -1.1,1.7 0.2,9.3 -0.8,0.4 -0.8,-0.4 0.1,-9.3 z m -6,3.4 2.6,-2 -0.1,7.9 h -2.2 z m 10.3,5.9 h -2.2 l -0.1,-7.9 2.6,2.1 z"
         id="path557" />
      <g
         id="g563">
        <path
           fill="#4751a2"
           d="m 218,151.5 c 1.2,0.7 3.2,6.2 3.1,10"
           id="path559" />
        <path
           fill="#131841"
           d="m 221.8,161.6 h -1.3 c 0.1,-3.8 -2,-9 -2.8,-9.4 l 0.6,-1.2 c 1.6,0.8 3.6,6.9 3.5,10.6 z"
           id="path561" />
      </g>
      <g
         id="g569">
        <path
           fill="#4751a2"
           d="m 205.5,151.9 c -0.5,0.8 -2.9,5.5 -2.8,9.3"
           id="path565" />
        <path
           fill="#131841"
           d="m 202,161.3 c -0.1,-4.3 2.8,-9.6 2.9,-9.7 l 1.2,0.7 c -0.6,0.9 -2.8,5.5 -2.7,8.9 z"
           id="path567" />
      </g>
    </g>
  </g>
  <ellipse
     style="fill:#0000ff;fill-opacity:0;fill-rule:nonzero;stroke:none;stroke-width:0.994;stroke-miterlimit:4;stroke-dasharray:none;stroke-opacity:1"
     id="path108147"
     cx="285.86417"
     cy="150.40408"
     rx="14.943995"
     ry="42.100288" />
  <rect
     style="fill:#629eff;fill-opacity:0;fill-rule:nonzero;stroke:none;stroke-width:0.994;stroke-miterlimit:4;stroke-dasharray:none;stroke-opacity:1"
     id="rect108239"
     width="41.136158"
     height="99.626633"
     x="259.02924"
     y="100.59076" />
  <rect
     style="opacity:1;fill:#629eff;fill-opacity:0;fill-rule:nonzero;stroke:none;stroke-width:0.994;stroke-miterlimit:4;stroke-dasharray:none;stroke-opacity:1"
     id="rect109223"
     width="40.172031"
     height="48.527813"
     x="323.3045"
     y="129.836" />
</svg>
